<?xml version="1.0" encoding="UTF-8"?>
<svg id="Layer_2" data-name="Layer 2" xmlns="http://www.w3.org/2000/svg" viewBox="0 0 376.8 112.57">
  <defs>
    <style>
      .cls-1 {
        fill: #f7941d;
      }
    </style>
  </defs>
  <g id="Layer_1-2" data-name="Layer 1">
    <path class="cls-1" d="M72.27,.88H5.24S.02,.88,.02,5.09V106.37s-.74,6.2,6.21,6.2h58.58s51.38-4.96,51.13-53.74C115.7,10.05,72.27,.88,72.27,.88Zm-9.26,78.06h-27.55c-6.14,0-6.14-6.14-6.14-6.14V40.03c0-5.4,5.59-5.4,5.59-5.4h25.87s21.41-1.12,21.41,21.41-19.18,22.9-19.18,22.9Z"/>
    <path class="cls-1" d="M120.91,5.09V106.86s-1.74,4.72,7.69,4.72h45.92s3.72,5.21,12.66-18.12L228.89,8.07s2.23-7.45-5.71-7.2-21.84,0-21.84,0l-35.5,63.79s-11.67,12.66-10.92-10.43V5.34s1.74-4.47-9.18-4.47h-20.35s-4.47-.24-4.47,4.23Z"/>
    <path class="cls-1" d="M301.12,9.13C300.93-.36,295.35,0,295.35,0h-45.24c-7.82,0-9.49,4.48-9.49,4.48l-48.21,99.59c-2.9,5.99,2.42,8.01,2.42,8.01h17.69c11.91,0,11.35-3.35,11.35-3.35l9.32-18.24h32.58v10.43c0,10.98,5.02,11.17,5.02,11.17h22.91c6.5,0,7.44-5.21,7.44-5.21,0,0,.19-88.24,0-97.74Zm-34.56,39.52v21.6h-22.65s9.86-26.56,16.38-26.56,6.27,4.96,6.27,4.96Z"/>
    <rect class="cls-1" x="305.03" y="0" width="14.89" height="112.08" rx="2.94" ry="2.94"/>
    <rect class="cls-1" x="324.58" y="0" width="14.89" height="112.08" rx="2.94" ry="2.94"/>
    <rect class="cls-1" x="344.31" y="0" width="14.89" height="112.08" rx="2.94" ry="2.94"/>
    <g>
      <path class="cls-1" d="M376.68,104.36l-4.47,2.68v.75h4.47v3.14h-11.83v-5.27c0-1.02,.16-1.88,.49-2.6,.33-.72,.77-1.25,1.34-1.61,.57-.36,1.2-.53,1.9-.53,.79,0,1.49,.24,2.11,.73,.62,.48,1.06,1.2,1.31,2.14l4.68-2.98v3.54Zm-6.5,3.44v-1.95c0-.58-.13-1.01-.39-1.29-.26-.29-.62-.43-1.1-.43s-.8,.14-1.06,.43c-.26,.29-.39,.72-.39,1.29v1.95h2.93Z"/>
      <path class="cls-1" d="M367.16,96.08h2.39v-4.21h2.22v4.21h2.6v-4.76h2.31v7.9h-11.83v-7.9h2.31v4.76Z"/>
      <path class="cls-1" d="M374.59,81.51v4.81l2.09,.77v3.29l-11.83-4.67v-3.64l11.83-4.67v3.33l-2.09,.77Zm-2.22,.81l-4.33,1.6,4.33,1.58v-3.18Z"/>
      <path class="cls-1" d="M374.46,73.12v-4.12h2.22v7.26h-11.83v-3.14h9.61Z"/>
      <path class="cls-1" d="M367.16,60.98h2.39v-4.21h2.22v4.21h2.6v-4.76h2.31v7.9h-11.83v-7.9h2.31v4.76Z"/>
      <path class="cls-1" d="M376.38,52.31c-.28,.75-.7,1.34-1.25,1.79-.55,.45-1.21,.68-1.99,.71v-3.34c.44-.05,.77-.21,1-.5s.35-.65,.35-1.1-.1-.83-.29-1.1c-.2-.27-.47-.4-.82-.4-.29,0-.53,.11-.72,.32-.19,.21-.35,.48-.47,.79-.12,.31-.26,.76-.42,1.33-.24,.83-.47,1.51-.71,2.04-.24,.53-.58,.98-1.04,1.36-.46,.38-1.06,.57-1.8,.57-1.1,0-1.96-.43-2.59-1.3-.62-.87-.94-2-.94-3.4s.31-2.57,.94-3.44c.62-.87,1.49-1.33,2.6-1.4v3.4c-.38,.02-.68,.18-.9,.46-.22,.28-.33,.64-.33,1.08,0,.38,.09,.69,.28,.92,.19,.23,.45,.35,.8,.35,.38,0,.68-.2,.89-.59,.21-.39,.44-1,.69-1.84,.26-.83,.51-1.51,.74-2.03,.24-.52,.58-.97,1.03-1.35,.45-.38,1.03-.57,1.74-.57s1.29,.19,1.84,.56c.55,.37,.99,.92,1.31,1.63,.33,.71,.49,1.55,.49,2.52s-.14,1.79-.42,2.53Z"/>
      <path class="cls-1" d="M364.85,34.12h2.31v3.42h9.52v3.14h-9.52v3.42h-2.31v-9.97Z"/>
      <path class="cls-1" d="M374.59,24.77v4.81l2.09,.77v3.29l-11.83-4.67v-3.64l11.83-4.67v3.32l-2.09,.77Zm-2.22,.81l-4.33,1.6,4.33,1.58v-3.18Z"/>
      <path class="cls-1" d="M364.85,10.24h2.31v3.42h9.52v3.14h-9.52v3.42h-2.31V10.24Z"/>
      <path class="cls-1" d="M367.16,5.78h2.39V1.58h2.22V5.78h2.6V1.02h2.31v7.9h-11.83V1.02h2.31V5.78Z"/>
    </g>
  </g>
</svg>